<?xml version="1.0" encoding="UTF-8" standalone="no"?>
<!-- Created with Digital by H.Neemann -->
<!-- created: Wed Nov 26 13:02:27 CST 2025 -->

<svg
   xmlns:svg="http://www.w3.org/2000/svg"
   xmlns="http://www.w3.org/2000/svg"
   width="169.05mm"
   height="89.1mm"
   viewBox="141 63 1127 594">
<g stroke-linecap="square">
<path d="M 481,400 L 481,409" stroke="#000000" stroke-width="4.0" fill="none"/>
<path d="M 481,480 L 481,471" stroke="#000000" stroke-width="4.0" fill="none"/>
<path d="M 600,100 L 600,160 L 740,160 L 740,100 L 760,100" stroke="#0000b2" stroke-width="4.0" fill="none"/>
<path d="M 340,320 L 680,320" stroke="#0000b2" stroke-width="4.0" fill="none"/>
<path d="M 720,320 L 1080,320" stroke="#0000b2" stroke-width="4.0" fill="none"/>
<path d="M 720,640 L 1080,640" stroke="#0000b2" stroke-width="4.0" fill="none"/>
<path d="M 340,640 L 680,640" stroke="#0000b2" stroke-width="4.0" fill="none"/>
<path d="M 820,100 L 840,100" stroke="#0000b2" stroke-width="4.0" fill="none"/>
<path d="M 340,100 L 600,100 L 620,100" stroke="#0000b2" stroke-width="4.0" fill="none"/>
<path d="M 340,420 L 480,420" stroke="#0000b2" stroke-width="4.0" fill="none"/>
<path d="M 340,460 L 380,460 L 380,440 L 460,440" stroke="#0000b2" stroke-width="4.0" fill="none"/>
<path d="M 600,80 L 620,80" stroke="#0000b2" stroke-width="4.0" fill="none"/>
<path d="M 680,80 L 760,80" stroke="#0000b2" stroke-width="4.0" fill="none"/>
<path d="M 820,80 L 1080,80" stroke="#0000b2" stroke-width="4.0" fill="none"/>
<path d="M 340,500 L 400,500 L 400,460 L 460,460" stroke="#0000b2" stroke-width="4.0" fill="none"/>
<path d="M 340,280 L 680,280" stroke="#0000b2" stroke-width="4.0" fill="none"/>
<path d="M 720,280 L 1080,280" stroke="#0000b2" stroke-width="4.0" fill="none"/>
<path d="M 560,440 L 680,440" stroke="#0000b2" stroke-width="4.0" fill="none"/>
<path d="M 720,440 L 1080,440" stroke="#0000b2" stroke-width="4.0" fill="none"/>
<path d="M 340,220 L 680,220" stroke="#0000b2" stroke-width="4.0" fill="none"/>
<path d="M 720,220 L 1080,220" stroke="#0000b2" stroke-width="4.0" fill="none"/>
<path d="M 340,540 L 420,540 L 420,480 L 460,480" stroke="#0000b2" stroke-width="4.0" fill="none"/>
<path d="M 340,380 L 380,380 L 380,400 L 480,400" stroke="#0000b2" stroke-width="4.0" fill="none"/>
<g>
<circle cx="600.0" cy="100.0" r="4.0" stroke="#0000b2" stroke-width="4.0" fill="#0000b2" />
</g>
<g>
<path d="M 309,85 L 339,85 L 339,115 L 309,115 Z" stroke="#000000" stroke-width="4.0" fill="none"/>
<text text-anchor="end" x="295.0" y="109.0" fill="#000000" style="font-size:24px"><tspan style="font-style:italic;">UARTCLK (1)</tspan></text>
<path d="M 315,105 L 320,105 L 320,95 L 325,95 L 325,105 L 330,105 L 330,95 L 335,95" stroke="#000000" stroke-width="2.0" fill="none"/>
<circle cx="340.0" cy="100.0" r="2.0" stroke="#b20000" stroke-width="4.0" fill="#b20000" />
</g>
<g>
<path d="M 309,365 L 339,365 L 339,395 L 309,395 Z" stroke="#000000" stroke-width="4.0" fill="none"/>
<circle cx="324.0" cy="380.0" r="9.0" stroke="#000000" stroke-width="4.0" fill="none" />
<text text-anchor="end" x="295.0" y="389.0" fill="#000000" style="font-size:24px"><tspan style="font-style:italic;">A7 (2)</tspan></text>
<circle cx="340.0" cy="380.0" r="2.0" stroke="#b20000" stroke-width="4.0" fill="#b20000" />
</g>
<g>
<path d="M 309,445 L 339,445 L 339,475 L 309,475 Z" stroke="#000000" stroke-width="4.0" fill="none"/>
<circle cx="324.0" cy="460.0" r="9.0" stroke="#000000" stroke-width="4.0" fill="none" />
<text text-anchor="end" x="295.0" y="469.0" fill="#000000" style="font-size:24px"><tspan style="font-style:italic;">A6 (3)</tspan></text>
<circle cx="340.0" cy="460.0" r="2.0" stroke="#b20000" stroke-width="4.0" fill="#b20000" />
</g>
<g>
<path d="M 309,485 L 339,485 L 339,515 L 309,515 Z" stroke="#000000" stroke-width="4.0" fill="none"/>
<circle cx="324.0" cy="500.0" r="9.0" stroke="#000000" stroke-width="4.0" fill="none" />
<text text-anchor="end" x="295.0" y="509.0" fill="#000000" style="font-size:24px"><tspan style="font-style:italic;">A5 (4)</tspan></text>
<circle cx="340.0" cy="500.0" r="2.0" stroke="#b20000" stroke-width="4.0" fill="#b20000" />
</g>
<g>
<path d="M 309,525 L 339,525 L 339,555 L 309,555 Z" stroke="#000000" stroke-width="4.0" fill="none"/>
<circle cx="324.0" cy="540.0" r="9.0" stroke="#000000" stroke-width="4.0" fill="none" />
<text text-anchor="end" x="295.0" y="549.0" fill="#000000" style="font-size:24px"><tspan style="font-style:italic;">A4 (5)</tspan></text>
<circle cx="340.0" cy="540.0" r="2.0" stroke="#b20000" stroke-width="4.0" fill="#b20000" />
</g>
<g>
<path d="M 309,265 L 339,265 L 339,295 L 309,295 Z" stroke="#000000" stroke-width="4.0" fill="none"/>
<circle cx="324.0" cy="280.0" r="9.0" stroke="#000000" stroke-width="4.0" fill="none" />
<text text-anchor="end" x="295.0" y="289.0" fill="#000000" style="font-size:24px"><tspan style="font-style:italic;">TX (6)</tspan></text>
<circle cx="340.0" cy="280.0" r="2.0" stroke="#b20000" stroke-width="4.0" fill="#b20000" />
</g>
<g>
<path d="M 309,305 L 339,305 L 339,335 L 309,335 Z" stroke="#000000" stroke-width="4.0" fill="none"/>
<circle cx="324.0" cy="320.0" r="9.0" stroke="#000000" stroke-width="4.0" fill="none" />
<text text-anchor="end" x="295.0" y="329.0" fill="#000000" style="font-size:24px"><tspan style="font-style:italic;">RX (7)</tspan></text>
<circle cx="340.0" cy="320.0" r="2.0" stroke="#b20000" stroke-width="4.0" fill="#b20000" />
</g>
<g>
<path d="M 309,405 L 339,405 L 339,435 L 309,435 Z" stroke="#000000" stroke-width="4.0" fill="none"/>
<circle cx="324.0" cy="420.0" r="9.0" stroke="#000000" stroke-width="4.0" fill="none" />
<text text-anchor="end" x="295.0" y="429.0" fill="#000000" style="font-size:24px"><tspan style="font-style:italic;">M1 (8)</tspan></text>
<circle cx="340.0" cy="420.0" r="2.0" stroke="#b20000" stroke-width="4.0" fill="#b20000" />
</g>
<g>
<path d="M 309,625 L 339,625 L 339,655 L 309,655 Z" stroke="#000000" stroke-width="4.0" fill="none"/>
<circle cx="324.0" cy="640.0" r="9.0" stroke="#000000" stroke-width="4.0" fill="none" />
<text text-anchor="end" x="295.0" y="649.0" fill="#000000" style="font-size:24px"><tspan style="font-style:italic;"><tspan style="text-decoration:overline;">IOREQ</tspan> (11)</tspan></text>
<circle cx="340.0" cy="640.0" r="2.0" stroke="#b20000" stroke-width="4.0" fill="#b20000" />
</g>
<g>
<path d="M 309,205 L 339,205 L 339,235 L 309,235 Z" stroke="#000000" stroke-width="4.0" fill="none"/>
<circle cx="324.0" cy="220.0" r="9.0" stroke="#000000" stroke-width="4.0" fill="none" />
<text text-anchor="end" x="295.0" y="229.0" fill="#000000" style="font-size:24px"><tspan style="font-style:italic;">IRQ (13)</tspan></text>
<circle cx="340.0" cy="220.0" r="2.0" stroke="#b20000" stroke-width="4.0" fill="#b20000" />
</g>
<g>
<circle cx="1096.0" cy="220.0" r="9.0" stroke="#000000" stroke-width="4.0" fill="none" />
<circle cx="1096.0" cy="220.0" r="15.0" stroke="#000000" stroke-width="4.0" fill="none" />
<text text-anchor="start" x="1125.0" y="229.0" fill="#000000" style="font-size:24px"><tspan style="font-style:italic;">/RTS (23)</tspan></text>
<circle cx="1080.0" cy="220.0" r="2.0" stroke="#0000b2" stroke-width="4.0" fill="#0000b2" />
</g>
<g>
<circle cx="1096.0" cy="280.0" r="9.0" stroke="#000000" stroke-width="4.0" fill="none" />
<circle cx="1096.0" cy="280.0" r="15.0" stroke="#000000" stroke-width="4.0" fill="none" />
<text text-anchor="start" x="1125.0" y="289.0" fill="#000000" style="font-size:24px"><tspan style="font-style:italic;">/RXLED (22)</tspan></text>
<circle cx="1080.0" cy="280.0" r="2.0" stroke="#0000b2" stroke-width="4.0" fill="#0000b2" />
</g>
<g>
<circle cx="1096.0" cy="320.0" r="9.0" stroke="#000000" stroke-width="4.0" fill="none" />
<circle cx="1096.0" cy="320.0" r="15.0" stroke="#000000" stroke-width="4.0" fill="none" />
<text text-anchor="start" x="1125.0" y="329.0" fill="#000000" style="font-size:24px"><tspan style="font-style:italic;">/TXLED (21)</tspan></text>
<circle cx="1080.0" cy="320.0" r="2.0" stroke="#0000b2" stroke-width="4.0" fill="#0000b2" />
</g>
<g>
<circle cx="1096.0" cy="80.0" r="9.0" stroke="#000000" stroke-width="4.0" fill="none" />
<circle cx="1096.0" cy="80.0" r="15.0" stroke="#000000" stroke-width="4.0" fill="none" />
<text text-anchor="start" x="1125.0" y="89.0" fill="#000000" style="font-size:24px"><tspan style="font-style:italic;">SCLK (20)</tspan></text>
<circle cx="1080.0" cy="80.0" r="2.0" stroke="#0000b2" stroke-width="4.0" fill="#0000b2" />
</g>
<g>
<circle cx="1096.0" cy="640.0" r="9.0" stroke="#000000" stroke-width="4.0" fill="none" />
<circle cx="1096.0" cy="640.0" r="15.0" stroke="#000000" stroke-width="4.0" fill="none" />
<text text-anchor="start" x="1125.0" y="649.0" fill="#000000" style="font-size:24px"><tspan style="font-style:italic;">E (15)</tspan></text>
<circle cx="1080.0" cy="640.0" r="2.0" stroke="#0000b2" stroke-width="4.0" fill="#0000b2" />
</g>
<g>
<circle cx="1096.0" cy="440.0" r="9.0" stroke="#000000" stroke-width="4.0" fill="none" />
<circle cx="1096.0" cy="440.0" r="15.0" stroke="#000000" stroke-width="4.0" fill="none" />
<text text-anchor="start" x="1125.0" y="449.0" fill="#000000" style="font-size:24px"><tspan style="font-style:italic;"><tspan style="text-decoration:overline;">IODEC</tspan> (14)</tspan></text>
<circle cx="1080.0" cy="440.0" r="2.0" stroke="#0000b2" stroke-width="4.0" fill="#0000b2" />
</g>
<g>
<path d="M 621,70 L 679,70 L 679,110 L 621,110 Z" stroke="#000000" stroke-width="4.0" fill="none"/>
<text text-anchor="start" x="624.0" y="86.75" fill="#808080" style="font-size:18px">D</text>
<path d="M 621,107 L 628,100 L 621,93" stroke="#000000" stroke-width="2.0" fill="none"/>
<text text-anchor="start" x="631.0" y="106.75" fill="#808080" style="font-size:18px">C</text>
<text text-anchor="end" x="676.0" y="86.75" fill="#808080" style="font-size:18px">Q</text>
<text text-anchor="end" x="676.0" y="106.75" fill="#808080" style="font-size:18px"><tspan style="text-decoration:overline;">Q</tspan></text>
<text text-anchor="middle" x="650.0" y="127.5" fill="#808080" style="font-size:18px">D</text>
<circle cx="620.0" cy="80.0" r="2.0" stroke="#0000b2" stroke-width="4.0" fill="#0000b2" />
<circle cx="620.0" cy="100.0" r="2.0" stroke="#0000b2" stroke-width="4.0" fill="#0000b2" />
<circle cx="680.0" cy="80.0" r="2.0" stroke="#b20000" stroke-width="4.0" fill="#b20000" />
<circle cx="680.0" cy="100.0" r="2.0" stroke="#b20000" stroke-width="4.0" fill="#b20000" />
</g>
<g>
<path d="M 600,80 L 586,72 L 586,88 Z" stroke="#000000" stroke-width="4.0" fill="none"/>
<text text-anchor="end" x="581.0" y="86.75" fill="#808080" style="font-size:18px">Div4</text>
<circle cx="600.0" cy="80.0" r="2.0" stroke="#0000b2" stroke-width="4.0" fill="#0000b2" />
</g>
<g>
<path d="M 761,70 L 819,70 L 819,110 L 761,110 Z" stroke="#000000" stroke-width="4.0" fill="none"/>
<text text-anchor="start" x="764.0" y="86.75" fill="#808080" style="font-size:18px">D</text>
<path d="M 761,107 L 768,100 L 761,93" stroke="#000000" stroke-width="2.0" fill="none"/>
<text text-anchor="start" x="771.0" y="106.75" fill="#808080" style="font-size:18px">C</text>
<text text-anchor="end" x="816.0" y="86.75" fill="#808080" style="font-size:18px">Q</text>
<text text-anchor="end" x="816.0" y="106.75" fill="#808080" style="font-size:18px"><tspan style="text-decoration:overline;">Q</tspan></text>
<text text-anchor="middle" x="790.0" y="127.5" fill="#808080" style="font-size:18px">D</text>
<circle cx="760.0" cy="80.0" r="2.0" stroke="#0000b2" stroke-width="4.0" fill="#0000b2" />
<circle cx="760.0" cy="100.0" r="2.0" stroke="#0000b2" stroke-width="4.0" fill="#0000b2" />
<circle cx="820.0" cy="80.0" r="2.0" stroke="#b20000" stroke-width="4.0" fill="#b20000" />
<circle cx="820.0" cy="100.0" r="2.0" stroke="#b20000" stroke-width="4.0" fill="#b20000" />
</g>
<g>
<path d="M 840,100 L 854,108 L 854,92 Z" stroke="#000000" stroke-width="4.0" fill="none"/>
<text text-anchor="start" x="859.0" y="106.75" fill="#808080" style="font-size:18px">Div4</text>
<circle cx="840.0" cy="100.0" r="2.0" stroke="#0000b2" stroke-width="4.0" fill="#0000b2" />
</g>
<g>
<path d="M 681,208 L 699,220 L 681,232 Z" stroke="#000000" stroke-width="4.0" fill="none"/>
<circle cx="710.0" cy="220.0" r="9.0" stroke="#000000" stroke-width="4.0" fill="none" />
<circle cx="680.0" cy="220.0" r="2.0" stroke="#0000b2" stroke-width="4.0" fill="#0000b2" />
<circle cx="720.0" cy="220.0" r="2.0" stroke="#b20000" stroke-width="4.0" fill="#b20000" />
</g>
<g>
<path d="M 681,268 L 699,280 L 681,292 Z" stroke="#000000" stroke-width="4.0" fill="none"/>
<circle cx="710.0" cy="280.0" r="9.0" stroke="#000000" stroke-width="4.0" fill="none" />
<circle cx="680.0" cy="280.0" r="2.0" stroke="#0000b2" stroke-width="4.0" fill="#0000b2" />
<circle cx="720.0" cy="280.0" r="2.0" stroke="#b20000" stroke-width="4.0" fill="#b20000" />
</g>
<g>
<path d="M 681,308 L 699,320 L 681,332 Z" stroke="#000000" stroke-width="4.0" fill="none"/>
<circle cx="710.0" cy="320.0" r="9.0" stroke="#000000" stroke-width="4.0" fill="none" />
<circle cx="680.0" cy="320.0" r="2.0" stroke="#0000b2" stroke-width="4.0" fill="#0000b2" />
<circle cx="720.0" cy="320.0" r="2.0" stroke="#b20000" stroke-width="4.0" fill="#b20000" />
</g>
<g>
<path d="M 530,470 L 481,470 L 481,410 L 530,410 C 540,410 560,420 559,440 C 559,460 540,470 530,470 Z" stroke="#000000" stroke-width="4.0" fill="none"/>
<circle cx="470.0" cy="440.0" r="8.0" stroke="#000000" stroke-width="4.0" fill="none" />
<circle cx="470.0" cy="460.0" r="8.0" stroke="#000000" stroke-width="4.0" fill="none" />
<circle cx="470.0" cy="480.0" r="8.0" stroke="#000000" stroke-width="4.0" fill="none" />
<circle cx="480.0" cy="400.0" r="2.0" stroke="#0000b2" stroke-width="4.0" fill="#0000b2" />
<circle cx="480.0" cy="420.0" r="2.0" stroke="#0000b2" stroke-width="4.0" fill="#0000b2" />
<circle cx="460.0" cy="440.0" r="2.0" stroke="#0000b2" stroke-width="4.0" fill="#0000b2" />
<circle cx="460.0" cy="460.0" r="2.0" stroke="#0000b2" stroke-width="4.0" fill="#0000b2" />
<circle cx="460.0" cy="480.0" r="2.0" stroke="#0000b2" stroke-width="4.0" fill="#0000b2" />
<circle cx="560.0" cy="440.0" r="2.0" stroke="#b20000" stroke-width="4.0" fill="#b20000" />
</g>
<g>
<path d="M 681,428 L 699,440 L 681,452 Z" stroke="#000000" stroke-width="4.0" fill="none"/>
<circle cx="710.0" cy="440.0" r="9.0" stroke="#000000" stroke-width="4.0" fill="none" />
<circle cx="680.0" cy="440.0" r="2.0" stroke="#0000b2" stroke-width="4.0" fill="#0000b2" />
<circle cx="720.0" cy="440.0" r="2.0" stroke="#b20000" stroke-width="4.0" fill="#b20000" />
</g>
<g>
<path d="M 681,628 L 699,640 L 681,652 Z" stroke="#000000" stroke-width="4.0" fill="none"/>
<circle cx="710.0" cy="640.0" r="9.0" stroke="#000000" stroke-width="4.0" fill="none" />
<circle cx="680.0" cy="640.0" r="2.0" stroke="#0000b2" stroke-width="4.0" fill="#0000b2" />
<circle cx="720.0" cy="640.0" r="2.0" stroke="#b20000" stroke-width="4.0" fill="#b20000" />
</g>
</g>
</svg>